<svg xmlns="http://www.w3.org/2000/svg" viewBox="0 0 256 256" role="img" aria-label="Pokéball with flame icon">
  <defs>
    <linearGradient id="flame" x1="0" y1="0" x2="1" y2="1">
      <stop offset="0" stop-color="#f97316" />
      <stop offset="0.5" stop-color="#ef4444" />
      <stop offset="1" stop-color="#f59e0b" />
    </linearGradient>
    <linearGradient id="ballTop" x1="0" y1="0" x2="0" y2="1">
      <stop offset="0" stop-color="#f87171" />
      <stop offset="1" stop-color="#ef4444" />
    </linearGradient>
  </defs>
  <rect width="256" height="256" rx="56" fill="#0f172a" />
  <path d="M62 186c-18-22-10-54 12-72 16-13 26-30 27-51 20 12 32 33 28 56-2 14-10 26-22 35 10 4 22 3 34-4-2 26-17 45-40 54-16 6-28 2-39-18z" fill="url(#flame)" />
  <circle cx="148" cy="140" r="68" fill="#0b1120" opacity="0.8" />
  <circle cx="148" cy="140" r="60" fill="url(#ballTop)" />
  <path d="M88 140h120c0 22-27 44-60 44s-60-22-60-44z" fill="#f8fafc" />
  <rect x="88" y="130" width="120" height="20" fill="#111827" />
  <circle cx="148" cy="140" r="22" fill="#111827" />
  <circle cx="148" cy="140" r="12" fill="#f8fafc" />
</svg>
